<?xml version="1.0" encoding="UTF-8"?>
<!-- Created with Inkscape (http://www.inkscape.org/) -->
<svg width="23.074mm" height="22.141mm" version="1.1" viewBox="0 0 23.074 22.141" xmlns="http://www.w3.org/2000/svg">
 <g transform="translate(-122.34,-127.14)" fill="#A1D1FF">
  <path d="m130.88 127.16c-0.40316-0.0775-0.91534 0.0889-1.2384 0.48463l-2.636 3.1072-3.6882 0.72575c-0.68937 0.11432-1.1826 0.93243-0.88419 1.47l1.6354 2.8406-1.3532 3.8346c-0.30946 0.80867 0.29581 1.4985 1.0839 1.2725l4.0596-1.2342 3.7355 2.3254c0.77635 0.49873 1.8905-0.0285 1.9712-1.0024l0.27803-4.5255 3.8068-3.045c0.76109-0.59012 0.5094-1.6136-0.42321-1.8102l-4.3794-0.84428-1.4214-3.1851c-0.0973-0.23041-0.30214-0.36696-0.54651-0.41395z" style="paint-order:stroke fill markers"/>
  <path d="m126.87 142.32c-0.29042 0-0.52551 0.2351-0.52551 0.52552 0 1.255-1.0199 2.275-2.275 2.275-0.29042 0-0.52553 0.23511-0.52553 0.52553s0.23511 0.52553 0.52553 0.52553c1.255 0 2.275 1.0199 2.275 2.2749 0 0.29042 0.23509 0.52553 0.52551 0.52553s0.52552-0.23511 0.52552-0.52553c0-1.255 1.0199-2.2749 2.275-2.2749 0.29042 0 0.52553-0.23511 0.52553-0.52553s-0.23511-0.52553-0.52553-0.52553c-1.255 0-2.275-1.0199-2.275-2.275 0-0.29042-0.2351-0.52552-0.52552-0.52552z" style="stroke-width:.34574"/>
  <path d="m136.76 127.2c-0.10863 0-0.19657 0.0879-0.19657 0.19657 0 0.46946-0.38151 0.85096-0.85096 0.85096-0.10863 0-0.19658 0.0879-0.19658 0.19658 0 0.10863 0.088 0.19658 0.19658 0.19658 0.46945 0 0.85096 0.3815 0.85096 0.85095 0 0.10864 0.0879 0.19658 0.19657 0.19658 0.10864 0 0.19658-0.0879 0.19658-0.19658 0-0.46945 0.38151-0.85095 0.85096-0.85095 0.10863 0 0.19658-0.0879 0.19658-0.19658 0-0.10863-0.088-0.19658-0.19658-0.19658-0.46945 0-0.85096-0.3815-0.85096-0.85096 0-0.10863-0.0879-0.19657-0.19658-0.19657z" style="stroke-width:.12932"/>
  <path d="m138.19 135.61c-0.0632 0-0.11433 0.0511-0.11433 0.11434 0 0.27306-0.22191 0.49496-0.49497 0.49496-0.0632 0-0.11434 0.0511-0.11434 0.11434 0 0.0632 0.0512 0.11434 0.11434 0.11434 0.27306 0 0.49497 0.2219 0.49497 0.49496 0 0.0632 0.0511 0.11434 0.11433 0.11434 0.0632 0 0.11434-0.0511 0.11434-0.11434 0-0.27306 0.22191-0.49496 0.49497-0.49496 0.0632 0 0.11434-0.0511 0.11434-0.11434 0-0.0632-0.0512-0.11434-0.11434-0.11434-0.27306 0-0.49497-0.2219-0.49497-0.49496 0-0.0632-0.0511-0.11434-0.11434-0.11434z" style="stroke-width:.075222"/>
 </g>
</svg>
